<svg xmlns="http://www.w3.org/2000/svg" viewBox="0 0 24 24" fill="none" stroke="#FFFFFF" stroke-width="1.5" stroke-linecap="round" stroke-linejoin="round">
  <path d="M21.05 11.9a8.84 8.84 0 0 1-8.91 8.82 8.73 8.73 0 0 1-4.25-1.08L3 21l1.4-4.08a8.8 8.8 0 0 1-1.29-4.64A8.83 8.83 0 0 1 12 3.09a8.82 8.82 0 0 1 9.05 8.81z"/>
  <path d="M15.68 14.48c-.21-.11-1.26-.62-1.46-.69s-.34-.1-.48.11-.55.69-.68.84-.25.15-.46.05a7.12 7.12 0 0 1-2.09-1.29A7.76 7.76 0 0 1 9.47 11c-.05-.14 0-.31.12-.42.12-.12.26-.32.39-.48a1.43 1.43 0 0 0 .26-.47.44.44 0 0 0-.02-.41c-.06-.11-.48-1.16-.65-1.59s-.34-.36-.47-.36h-.39a.76.76 0 0 0-.55.26 2.3 2.3 0 0 0-.72 1.68 3.92 3.92 0 0 0 .86 2.08 9.18 9.18 0 0 0 3.57 3.07 10.27 10.27 0 0 0 2.5.78 2.19 2.19 0 0 0 1.38-.22 2.36 2.36 0 0 0 1-1.13c.13-.23.15-.42.1-.56s-.18-.09-.38-.19z"/>
</svg>
